<svg width="50" height="50" viewBox="0 0 50 50" fill="none" xmlns="http://www.w3.org/2000/svg">
<path d="M9.22187 42.5016L5.71094 3.125H44.2891L40.7734 42.4953L24.9766 46.875L9.22187 42.5016Z" stroke="white" stroke-width="3"/>
<path d="M25 20.9485H18.6094L18.1688 16.0031H25V11.1735H12.8906L13.0063 12.4703L14.1922 25.7781H25V20.9485Z" fill="white"/>
<path d="M24.9999 33.4906L24.978 33.4968L19.5999 32.0453L19.2562 28.1937H14.4077L15.0843 35.775L24.978 38.5218L24.9999 38.5156V33.4906Z" fill="white"/>
<path d="M24.9828 20.9485V25.7782H30.9297L30.3703 32.0422L24.9828 33.4954V38.5204L34.8843 35.775L34.9562 34.9594L36.0906 22.2454L36.2093 20.9485H24.9828Z" fill="white"/>
<path d="M24.9828 11.1735V16.0031H36.6484L36.7453 14.9188L36.9656 12.4703L37.0812 11.1735H24.9828Z" fill="white"/>
</svg>
