<svg width="43" height="50" viewBox="0 0 43 50" fill="none" xmlns="http://www.w3.org/2000/svg">
<g clip-path="url(#clip0_511_42)">
<path d="M15.1598 10.6671C15.4803 10.6671 15.7558 10.5519 15.9862 10.3215C16.2165 10.0911 16.3317 9.8157 16.3317 9.49519C16.3317 9.17468 16.2165 8.89924 15.9862 8.66887C15.7558 8.4385 15.4803 8.32332 15.1598 8.32332C14.8393 8.32332 14.5689 8.4385 14.3485 8.66887C14.1282 8.89924 14.018 9.17468 14.018 9.49519C14.018 9.8157 14.1282 10.0911 14.3485 10.3215C14.5689 10.5519 14.8393 10.6671 15.1598 10.6671ZM27.8401 10.6671C28.1606 10.6671 28.4311 10.5519 28.6514 10.3215C28.8718 10.0911 28.9819 9.8157 28.9819 9.49519C28.9819 9.17468 28.8718 8.89924 28.6514 8.66887C28.4311 8.4385 28.1606 8.32332 27.8401 8.32332C27.5196 8.32332 27.2442 8.4385 27.0138 8.66887C26.7834 8.89924 26.6682 9.17468 26.6682 9.49519C26.6682 9.8157 26.7834 10.0911 27.0138 10.3215C27.2442 10.5519 27.5196 10.6671 27.8401 10.6671ZM3.44108 16.1959C4.28243 16.1959 5.00358 16.4964 5.60454 17.0974C6.20551 17.6983 6.50599 18.4195 6.50599 19.2608V32.1815C6.50599 33.0429 6.21051 33.774 5.61957 34.375C5.02862 34.976 4.30246 35.2764 3.44108 35.2764C2.5797 35.2764 1.84853 34.976 1.24757 34.375C0.646611 33.774 0.34613 33.0429 0.34613 32.1815V19.2608C0.34613 18.4195 0.646611 17.6983 1.24757 17.0974C1.84853 16.4964 2.5797 16.1959 3.44108 16.1959ZM35.292 16.7668V36.7788C35.292 37.7003 34.9715 38.4816 34.3305 39.1226C33.6895 39.7636 32.9182 40.0841 32.0168 40.0841H29.7632V46.905C29.7632 47.7664 29.4627 48.4976 28.8618 49.0986C28.2608 49.6995 27.5296 50 26.6682 50C25.8069 50 25.0757 49.6995 24.4747 49.0986C23.8738 48.4976 23.5733 47.7664 23.5733 46.905V40.0841H19.4267V46.905C19.4267 47.7664 19.1262 48.4976 18.5252 49.0986C17.9243 49.6995 17.1931 50 16.3317 50C15.4904 50 14.7692 49.6995 14.1682 49.0986C13.5673 48.4976 13.2668 47.7664 13.2668 46.905L13.2368 40.0841H11.0132C10.0917 40.0841 9.31047 39.7636 8.66945 39.1226C8.02842 38.4816 7.70791 37.7003 7.70791 36.7788V16.7668H35.292ZM28.3209 4.59736C30.4643 5.69912 32.1771 7.23658 33.4591 9.20974C34.7412 11.1829 35.3822 13.3413 35.3822 15.6851H7.58772C7.58772 13.3413 8.22874 11.1829 9.51079 9.20974C10.7928 7.23658 12.5156 5.69912 14.6791 4.59736L12.5457 0.661058C12.4054 0.400641 12.4555 0.200321 12.6959 0.0600962C12.9563 -0.0600962 13.1566 0 13.2969 0.240385L15.4603 4.20673C17.3634 3.36538 19.3766 2.94471 21.5 2.94471C23.6234 2.94471 25.6366 3.36538 27.5396 4.20673L29.7031 0.240385C29.8433 0 30.0436 -0.0600962 30.3041 0.0600962C30.5444 0.200321 30.5945 0.400641 30.4543 0.661058L28.3209 4.59736ZM42.6538 19.2608V32.1815C42.6538 33.0429 42.3533 33.774 41.7524 34.375C41.1514 34.976 40.4203 35.2764 39.5589 35.2764C38.7175 35.2764 37.9964 34.976 37.3954 34.375C36.7944 33.774 36.494 33.0429 36.494 32.1815V19.2608C36.494 18.3994 36.7944 17.6733 37.3954 17.0823C37.9964 16.4914 38.7175 16.1959 39.5589 16.1959C40.4203 16.1959 41.1514 16.4914 41.7524 17.0823C42.3533 17.6733 42.6538 18.3994 42.6538 19.2608Z" fill="white"/>
</g>
<defs>
<clipPath id="clip0_511_42">
<rect width="42.3077" height="50" fill="white" transform="translate(0.34613)"/>
</clipPath>
</defs>
</svg>
