<svg width="51" height="50" viewBox="0 0 51 50" fill="none" xmlns="http://www.w3.org/2000/svg">
<path d="M39.1188 26.4233C39.0948 22.3249 40.9517 19.236 44.7015 16.9585C42.6043 13.9538 39.4313 12.3012 35.2488 11.9827C31.2886 11.6702 26.9558 14.2903 25.3694 14.2903C23.6927 14.2903 19.8588 12.0909 16.842 12.0909C10.6163 12.187 4 17.0546 4 26.9581C4 29.8847 4.53483 32.9074 5.6045 36.0202C7.03474 40.1186 12.1908 50.1603 17.5692 49.9981C20.3816 49.932 22.3707 48.0029 26.0304 48.0029C29.5819 48.0029 31.4208 49.9981 34.5577 49.9981C39.9842 49.9199 44.6475 40.7917 46.0056 36.6813C38.7282 33.2499 39.1188 26.6336 39.1188 26.4233V26.4233ZM32.803 8.09464C35.8497 4.47699 35.5733 1.18385 35.4832 0C32.7909 0.156244 29.6781 1.83286 27.9053 3.89408C25.9523 6.10553 24.8045 8.8398 25.0509 11.9226C27.9594 12.145 30.6156 10.6486 32.803 8.09464V8.09464Z" fill="white"/>
</svg>
