<svg width="51" height="50" viewBox="0 0 51 50" fill="none" xmlns="http://www.w3.org/2000/svg">
<g clip-path="url(#clip0_105_7645)">
<path d="M46.525 38.5342C43.8066 38.4653 41.6998 38.7415 39.9328 39.5008C39.423 39.7078 38.6074 39.708 38.5395 40.3639C38.8113 40.6401 38.8453 41.0889 39.0832 41.4685C39.4914 42.1588 40.2045 43.0909 40.8502 43.5745C41.5637 44.1266 42.2775 44.6788 43.0248 45.1622C44.3502 45.9907 45.8455 46.4739 47.1367 47.3024C47.8846 47.7854 48.6316 48.4072 49.3793 48.9248C49.7531 49.2006 49.9908 49.6498 50.4668 49.8223V49.7189C50.2287 49.408 50.1607 48.9594 49.923 48.6141C49.5836 48.2689 49.2434 47.9582 48.9035 47.6129C47.9182 46.2669 46.6949 45.0931 45.3697 44.1266C44.2824 43.3671 41.9035 42.3316 41.4619 41.0542C41.4619 41.0542 41.4277 41.0199 41.3939 40.9854C42.1414 40.9163 43.0248 40.6401 43.7387 40.433C44.8939 40.1221 45.9473 40.1913 47.1367 39.8806C47.6803 39.7425 48.224 39.5699 48.7676 39.3973V39.0868C48.1563 38.4653 47.7145 37.637 47.0688 37.05C45.3357 35.5308 43.4326 34.0467 41.4619 32.804C40.4084 32.1135 39.049 31.6647 37.9277 31.078C37.5203 30.8707 36.8404 30.7673 36.6027 30.4221C35.9908 29.6627 35.651 28.6618 35.2094 27.7641C34.2242 25.8653 33.2725 23.7598 32.4229 21.7578C31.8115 20.4114 31.4377 19.0649 30.69 17.8225C27.19 11.954 23.3842 8.39846 17.5396 4.91175C16.2822 4.18695 14.7871 3.87624 13.19 3.49667C12.3408 3.46195 11.491 3.3931 10.6416 3.35838C10.0979 3.11671 9.5541 2.46096 9.07832 2.15024C7.1418 0.907387 2.14629 -1.78488 0.719142 1.77068C-0.198436 4.01433 2.07852 6.22346 2.85977 7.36294C3.43789 8.15679 4.18516 9.05421 4.59297 9.95183C4.83086 10.5383 4.89863 11.1602 5.13653 11.7814C5.68047 13.2998 6.18985 14.9917 6.90371 16.4072C7.27754 17.132 7.68516 17.8913 8.16094 18.5473C8.43281 18.9268 8.9084 19.0996 9.01055 19.7209C8.53496 20.4114 8.50078 21.4471 8.22871 22.31C7.00547 26.2108 7.48145 31.0435 9.21426 33.9086C9.75781 34.7713 11.0492 36.6705 12.7822 35.9453C14.3115 35.3241 13.9717 33.3564 14.4131 31.6304C14.5154 31.2157 14.4475 30.9399 14.6512 30.6637V30.733C15.127 31.6993 15.6025 32.6316 16.0443 33.5981C17.0979 35.2893 18.9326 37.05 20.4617 38.2239C21.2775 38.8449 21.923 39.9151 22.9426 40.2949V40.1911H22.8744C22.6705 39.8804 22.3646 39.7425 22.093 39.5006C21.4814 38.8796 20.8016 38.1201 20.326 37.4296C18.899 35.4963 17.6414 33.3562 16.5201 31.1469C15.9766 30.077 15.5006 28.9032 15.059 27.8332C14.8549 27.4185 14.8549 26.7975 14.5152 26.5905C14.0055 27.3498 13.258 28.0058 12.8842 28.9377C12.2389 30.4221 12.1707 32.2516 11.9328 34.15C11.7969 34.185 11.8647 34.15 11.7967 34.2195C10.7096 33.9429 10.3357 32.804 9.92774 31.8373C8.90821 29.3866 8.73828 25.4512 9.62207 22.6207C9.85996 21.8957 10.8795 19.6175 10.4717 18.927C10.2678 18.2711 9.58789 17.8913 9.21426 17.3737C8.77266 16.7177 8.29668 15.8895 7.99102 15.1643C7.17539 13.2312 6.76758 11.0909 5.88418 9.15778C5.47637 8.26016 4.76309 7.32842 4.18516 6.49985C3.53965 5.5679 2.82598 4.91175 2.31621 3.80719C2.14649 3.42762 1.9084 2.8062 2.18028 2.39191C2.24824 2.11572 2.38399 2.01235 2.65606 1.9433C3.09785 1.56334 4.35528 2.04667 4.79668 2.25382C6.0541 2.77128 7.10742 3.25501 8.16094 3.97981C8.63653 4.32505 9.14629 4.981 9.75781 5.15362H10.4715C11.559 5.39508 12.782 5.22266 13.8016 5.53318C15.6027 6.11989 17.2336 6.98298 18.6949 7.91512C23.1465 10.7802 26.816 14.8536 29.2969 19.7209C29.7047 20.5145 29.8744 21.2399 30.2482 22.0681C30.9621 23.7598 31.8455 25.4858 32.5588 27.1427C33.2725 28.7649 33.952 30.4221 34.9715 31.7685C35.4813 32.4931 37.5199 32.8731 38.4375 33.2528C39.1172 33.5633 40.1707 33.8397 40.7822 34.2193C41.9375 34.9439 43.0928 35.7729 44.1803 36.5665C44.724 36.9808 46.4229 37.8439 46.525 38.5342Z" fill="white"/>
<path d="M11.8644 8.53613C11.2869 8.53613 10.8792 8.60558 10.4714 8.70895V8.778H10.5394C10.8115 9.33038 11.2869 9.71014 11.6265 10.1933C11.8986 10.7455 12.1363 11.298 12.4083 11.8504C12.4421 11.8157 12.4761 11.7814 12.4761 11.7814C12.9521 11.4359 13.1898 10.8838 13.1898 10.0552C12.9859 9.81371 12.9519 9.57205 12.782 9.33038C12.5783 8.98494 12.1363 8.81252 11.8644 8.53613Z" fill="white"/>
</g>
<defs>
<clipPath id="clip0_105_7645">
<rect width="50" height="50" fill="white" transform="translate(0.5)"/>
</clipPath>
</defs>
</svg>
