<svg width="51" height="50" viewBox="0 0 51 50" fill="none" xmlns="http://www.w3.org/2000/svg">
<g clip-path="url(#clip0_105_7619)">
<path d="M25.0208 23.4166H21.2417V17.0875H25.725C28.1625 17.0875 29.5458 18.175 29.5458 20.1416C29.5458 22.2416 27.9354 23.4166 25.0167 23.4166H25.0208ZM25.6958 25.9291H21.2437V32.9041H25.8917C28.9312 32.9041 30.5417 31.6854 30.5417 29.3937C30.5417 27.102 28.8854 25.9291 25.6958 25.9291ZM50.5 23.7291V26.2666C48.15 26.4916 46.7146 28.2333 45.8625 30.9916C45.0146 33.7395 44.8979 37.1104 44.9875 39.7124C45.0812 42.4208 42.9708 44.9208 40.1187 44.9208H10.8854C8.03125 44.9208 5.92083 42.4208 6.01667 39.7124C6.10625 37.1104 5.98958 33.7395 5.14167 30.9916C4.2875 28.2333 2.85 26.4916 0.5 26.2666V23.7291C2.85 23.5041 4.28958 21.7625 5.13958 19.0041C5.98958 16.2562 6.10625 12.8854 6.01458 10.2833C5.92083 7.57495 8.03125 5.07495 10.8854 5.07495H40.1187C42.9729 5.07495 45.0812 7.57495 44.9875 10.2833C44.8979 12.8854 45.0146 16.2562 45.8625 19.0041C46.7146 21.7625 48.15 23.5041 50.5 23.7291ZM33.9854 29.5979C33.9854 26.777 32 24.7374 29.0521 24.4145V24.2958C31.2187 23.9437 32.9187 21.9312 32.9187 19.6854C32.9187 16.4833 30.3917 14.3979 26.5396 14.3979H17.8729V35.5895H26.5833C31.2042 35.5895 33.9854 33.327 33.9854 29.5979Z" fill="white"/>
</g>
<defs>
<clipPath id="clip0_105_7619">
<rect width="50" height="50" fill="white" transform="translate(0.5)"/>
</clipPath>
</defs>
</svg>
