<svg width="50" height="50" viewBox="0 0 50 50" fill="none" xmlns="http://www.w3.org/2000/svg">
<path d="M45.3281 7.85938L36.3188 3.52188C35.81 3.27657 35.2375 3.19561 34.6806 3.29024C34.1238 3.38487 33.6101 3.6504 33.211 4.05001L3.71876 30.9375C3.36094 31.2622 3.14674 31.7157 3.1233 32.1983C3.09986 32.6809 3.26909 33.1531 3.59376 33.5109C3.63283 33.5531 3.67189 33.5938 3.71408 33.6313L6.12189 35.8188C6.43652 36.1051 6.84151 36.2722 7.26652 36.2911C7.69153 36.3099 8.10972 36.1793 8.44845 35.9219L43.9719 8.98438C44.2402 8.78078 44.56 8.65611 44.8954 8.62441C45.2307 8.59271 45.5682 8.65524 45.8699 8.80496C46.1716 8.95469 46.4256 9.18565 46.6032 9.47187C46.7807 9.75808 46.8749 10.0882 46.875 10.425V10.3203C46.875 9.8061 46.7298 9.30234 46.4561 8.86698C46.1825 8.43163 45.7915 8.08237 45.3281 7.85938Z" fill="white"/>
<path d="M45.3281 42.1406L36.3188 46.4797C35.8098 46.7243 35.2375 46.8049 34.6808 46.7103C34.1241 46.6157 33.6105 46.3506 33.211 45.9515L3.71876 19.0625C3.36094 18.7378 3.14674 18.2843 3.1233 17.8017C3.09986 17.319 3.26909 16.8469 3.59376 16.489C3.63283 16.4469 3.67189 16.4062 3.71408 16.3687L6.12189 14.1812C6.43684 13.8937 6.84276 13.7258 7.26882 13.707C7.69488 13.6881 8.11403 13.8195 8.45314 14.0781L43.9719 41.0156C44.2402 41.2192 44.56 41.3439 44.8954 41.3756C45.2307 41.4073 45.5682 41.3448 45.8699 41.195C46.1716 41.0453 46.4256 40.8143 46.6032 40.5281C46.7807 40.2419 46.8749 39.9118 46.875 39.575V39.6875C46.8733 40.2003 46.7274 40.7024 46.4538 41.1362C46.1803 41.57 45.7902 41.9181 45.3281 42.1406Z" fill="white"/>
<path d="M36.3188 46.4797C35.8098 46.7243 35.2375 46.8049 34.6808 46.7103C34.1241 46.6157 33.6105 46.3506 33.211 45.9515C33.4353 46.173 33.7201 46.3233 34.0295 46.3836C34.339 46.444 34.6593 46.4116 34.9505 46.2906C35.2416 46.1697 35.4906 45.9655 35.6661 45.7037C35.8417 45.4418 35.9361 45.134 35.9375 44.8187V5.18123C35.9378 4.8645 35.844 4.55481 35.6681 4.2914C35.4923 4.02799 35.2421 3.82271 34.9495 3.70157C34.6568 3.58042 34.3348 3.54886 34.0242 3.61089C33.7136 3.67291 33.4284 3.82573 33.2047 4.04998C33.604 3.65052 34.1175 3.38497 34.6742 3.29008C35.231 3.19519 35.8035 3.27564 36.3125 3.5203L45.3203 7.85155C45.7851 8.07342 46.1778 8.4222 46.4528 8.85764C46.7279 9.29308 46.8743 9.79743 46.875 10.3125V39.6875C46.8751 40.2021 46.7299 40.7063 46.4559 41.142C46.1819 41.5777 45.7905 41.9271 45.3266 42.15L36.3188 46.4797Z" fill="white"/>
</svg>
