<svg width="50" height="50" viewBox="0 0 50 50" fill="none" xmlns="http://www.w3.org/2000/svg">
<g clip-path="url(#clip0_511_9)">
<path d="M35.6859 0C33.7415 0.0147952 31.8084 0.296595 29.9406 0.8375L29.8109 0.879688C28.6358 0.676099 27.447 0.56171 26.2547 0.5375C23.7969 0.495313 21.6875 1.08906 19.9875 2.08281C18.3109 1.50625 14.8359 0.495313 11.1734 0.7C8.62813 0.8375 5.84375 1.61094 3.775 3.79219C1.725 5.96563 0.635938 9.33438 0.8625 13.925C0.926563 15.1859 1.28594 17.2438 1.8875 19.9203C2.48125 22.5906 3.32031 25.7156 4.37031 28.5719C5.42031 31.4203 6.56563 33.9828 8.35781 35.7234C9.25156 36.5938 10.4891 37.3359 11.9453 37.2719C12.9641 37.2297 13.8828 36.7828 14.6812 36.1234C15.0703 36.6359 15.4875 36.8547 15.8609 37.0594C16.3422 37.3203 16.7969 37.4984 17.2781 37.6141C18.1406 37.8328 19.6141 38.1188 21.3391 37.825C21.9672 37.712 22.5794 37.5236 23.1625 37.2641L23.2359 39.3063C23.325 41.4625 23.3844 43.4563 24.025 45.2063C24.1313 45.4922 24.4172 46.9563 25.5391 48.2578C26.6703 49.5594 28.8656 50.3656 31.3812 49.8281C33.1484 49.4531 35.4016 48.7703 36.9 46.6391C38.3812 44.5391 39.0484 41.5203 39.1797 36.6203C39.2109 36.3516 39.2531 36.1328 39.2922 35.9203L39.6422 35.9531H39.6844C41.5719 36.0344 43.6234 35.7656 45.3406 34.9672C46.8531 34.2672 48.0016 33.5594 48.8391 32.2984C49.0438 31.9875 49.2781 31.6063 49.3375 30.9547C49.4016 30.3125 49.0266 29.2938 48.4078 28.8234C47.1719 27.8797 46.3906 28.2375 45.5516 28.4172C44.7298 28.5942 43.8934 28.6947 43.0531 28.7172C45.4609 24.6656 47.1859 20.3531 48.1719 16.5422C48.7578 14.2875 49.0844 12.2125 49.1078 10.3984C49.1406 8.58438 48.9875 6.98125 47.9031 5.59063C44.5016 1.25313 39.7234 0.046875 36.0297 0.0078125H35.6875L35.6859 0ZM35.5875 1.33594C39.0797 1.30313 43.5453 2.27969 46.7516 6.37969C47.4766 7.3 47.6891 8.64219 47.6641 10.3031C47.6391 11.9641 47.3312 13.9406 46.7687 16.1141C45.6875 20.3313 43.6266 25.2281 40.7391 29.6328C40.8384 29.7077 40.9478 29.7682 41.0641 29.8125C41.6656 30.0641 43.0406 30.275 45.7906 29.7141C46.4828 29.5656 46.9891 29.4703 47.5172 29.8688C47.6454 29.9768 47.7466 30.1134 47.8128 30.2674C47.8789 30.4215 47.9083 30.5889 47.8984 30.7563C47.87 31.01 47.7745 31.2516 47.6219 31.4563C47.0922 32.2516 46.0453 33.0109 44.7016 33.6375C43.5141 34.1891 41.8031 34.475 40.3 34.4922C39.5359 34.5 38.8359 34.4422 38.2391 34.2547L38.2078 34.2484C37.9781 36.4531 37.4516 40.8156 37.1078 42.8C36.8328 44.4016 36.3516 45.6813 35.4328 46.6328C34.5125 47.5938 33.2187 48.1625 31.4687 48.5375C29.3047 49.0016 27.7328 48.5047 26.7172 47.65C25.7016 46.7953 25.2359 45.6563 24.9594 44.9641C24.7656 44.4844 24.6672 43.8656 24.5703 43.0344C24.464 42.0419 24.3931 41.046 24.3578 40.0484C24.2937 38.2984 24.2688 36.5484 24.2938 34.7906C23.391 35.6184 22.2694 36.1694 21.0625 36.3781C19.6234 36.6219 18.3453 36.3781 17.5812 36.1906C17.2043 36.0945 16.8406 35.9523 16.4984 35.7672C16.1406 35.5797 15.8062 35.3688 15.5797 34.9438C15.4491 34.7004 15.4087 34.4187 15.4656 34.1484C15.5332 33.8739 15.6911 33.6301 15.9141 33.4563C16.3281 33.1203 16.875 32.9359 17.6953 32.7641C19.1937 32.4531 19.7219 32.2438 20.0391 31.9891C20.3078 31.7781 20.6188 31.3391 21.1531 30.6953C21.1531 30.6719 21.1531 30.6391 21.1453 30.6141C20.1771 30.5846 19.2292 30.3282 18.3781 29.8656C18.0703 30.1906 16.4656 31.8844 14.5219 34.2281C13.7078 35.2031 12.8047 35.7656 11.8453 35.8078C10.8937 35.8469 10.0281 35.3688 9.29687 34.6594C7.83281 33.2344 6.65938 30.7844 5.64219 28.0172C4.625 25.25 3.80313 22.1672 3.20938 19.5469C2.62344 16.9172 2.27344 14.8016 2.22344 13.7844C2.00469 9.44687 3.02188 6.52656 4.7625 4.67813C6.50313 2.82969 8.88906 2.13906 11.2172 2.00156C15.3922 1.76563 19.3625 3.22188 20.1609 3.53125C21.7062 2.48125 23.7 1.83125 26.1906 1.87031C27.3709 1.88767 28.5453 2.04076 29.6906 2.32656L29.7328 2.30156C30.2367 2.12704 30.75 1.98098 31.2703 1.86406C32.6845 1.53219 34.1304 1.35459 35.5828 1.33438L35.5875 1.33594ZM35.9047 2.72656H35.5969C34.4094 2.74063 33.2109 2.88125 32.0484 3.13281C34.6437 4.28125 36.6047 6.04531 37.9875 7.82031C38.9484 9.04063 39.7375 10.3828 40.3391 11.8156C40.5766 12.3703 40.7313 12.8328 40.8125 13.1906C40.8609 13.3703 40.8859 13.5234 40.9016 13.6781C40.9016 13.7594 40.9094 13.8422 40.8688 13.9797C40.8688 13.9875 40.8609 14.0047 40.8609 14.0125C40.9281 15.8359 40.4719 17.0703 40.4125 18.8125C40.3734 20.075 40.6984 21.5563 40.7797 23.175C40.8531 24.6953 40.6672 26.3641 39.6812 28.0078C39.7625 28.1063 39.8359 28.2031 39.9172 28.3094C42.5297 24.1906 44.4172 19.6422 45.4188 15.7594C45.9563 13.6672 46.2391 11.7719 46.2641 10.2766C46.2891 8.77813 46.0125 7.6875 45.6531 7.23281C42.8531 3.65938 39.0703 2.74688 35.9031 2.725L35.9047 2.72656ZM25.9187 3.2625C23.4625 3.27031 21.6953 4.0125 20.3547 5.12656C18.9688 6.28281 18.0422 7.85313 17.4406 9.47188C16.7156 11.3844 16.4641 13.2391 16.3656 14.5016L16.3984 14.4844C17.266 13.9986 18.1975 13.6373 19.1656 13.4109C20.2078 13.1656 21.3391 13.0922 22.3547 13.4922C23.3813 13.8813 24.2188 14.8172 24.5281 16.225C25.9953 23.0125 24.0734 25.5359 23.3656 27.4391C23.0969 28.1313 22.8609 28.8313 22.6734 29.5469C22.7625 29.5297 22.8531 29.5047 22.9422 29.4969C23.4469 29.4578 23.8359 29.6203 24.0656 29.7172C24.7828 30.0172 25.2703 30.6359 25.5391 31.3438C25.605 31.537 25.6537 31.7357 25.6844 31.9375C25.7113 32.0219 25.7255 32.1099 25.7266 32.1984C25.6445 34.7938 25.6523 37.3912 25.75 39.9859C25.8 41.1094 25.8734 42.0938 25.9625 42.875C26.0516 43.6484 26.1734 44.2422 26.2563 44.4453C26.5234 45.1125 26.9141 45.9828 27.6234 46.5766C28.3234 47.1719 29.3313 47.5625 31.1797 47.1719C32.7812 46.8219 33.7672 46.3484 34.425 45.6656C35.0859 44.9734 35.475 44.0219 35.7266 42.5656C36.1094 40.3766 36.8656 34.0281 36.9563 32.8406C36.9172 31.9359 37.0453 31.2453 37.3391 30.7156C37.6312 30.1781 38.0875 29.8453 38.4875 29.6656C38.6813 29.5766 38.8688 29.5203 39.0234 29.4703C38.8597 29.242 38.6915 29.0169 38.5188 28.7953C37.9484 28.1033 37.4797 27.3336 37.1266 26.5094C36.9642 26.1637 36.7848 25.8263 36.5891 25.4984C36.3141 25.0031 35.9641 24.375 35.5969 23.6672C34.8641 22.2672 34.0672 20.5594 33.6516 18.8984C33.2375 17.2375 33.1813 15.5219 34.2391 14.3172C35.175 13.2422 36.8266 12.7969 39.2906 13.0484C39.2172 12.8281 39.1781 12.6406 39.0547 12.3563C38.4942 11.0399 37.7635 9.8028 36.8813 8.67656C34.7891 6 31.3953 3.34531 26.1641 3.25625L25.9187 3.2625ZM12.0859 3.36875C11.8227 3.36847 11.5596 3.37681 11.2969 3.39375C9.18906 3.51719 7.20313 4.125 5.77813 5.63125C4.35469 7.14531 3.42031 9.61094 3.62188 13.7047C3.66406 14.4859 3.99688 16.65 4.57344 19.2297C5.15313 21.8109 5.97344 24.8469 6.95938 27.5313C7.94219 30.2078 9.13281 32.5438 10.2719 33.65C10.8406 34.1953 11.3359 34.4234 11.7844 34.4078C12.2328 34.3828 12.7781 34.1219 13.4453 33.325C14.6561 31.8641 15.913 30.442 17.2141 29.0609C16.2913 28.2577 15.5855 27.2351 15.1618 26.0875C14.738 24.9398 14.6098 23.7039 14.7891 22.4938C15 20.9563 15.0328 19.5141 15 18.375C14.9766 17.2688 14.9016 16.5375 14.9016 16.0734V16.0234L14.8937 16.0094C14.8937 13.6078 15.3188 11.2328 16.1313 8.97813C16.7172 7.42188 17.5812 5.85313 18.8812 4.57344C17.6047 4.15 15.3328 3.51719 12.8766 3.39375C12.6139 3.37686 12.3507 3.36852 12.0875 3.36875H12.0859ZM37.9141 14.3703C36.5 14.3953 35.7094 14.7625 35.2875 15.2328C34.7 15.9094 34.6437 17.0969 35.0109 18.5625C35.375 20.0266 36.1344 21.6625 36.8422 23.0234C37.1922 23.7063 37.5344 24.3172 37.8094 24.8125C38.0953 25.3172 38.2984 25.6672 38.4203 25.9766C38.5344 26.2531 38.6656 26.4969 38.7953 26.725C39.3406 25.5688 39.4391 24.4375 39.3813 23.25C39.3078 21.7859 38.9672 20.2875 39.0234 18.775C39.0813 17 39.4313 15.8438 39.4563 14.4766C38.9459 14.4091 38.4319 14.3736 37.9172 14.3703H37.9141ZM20.7609 14.6172C20.3297 14.6172 19.8984 14.6734 19.475 14.7719C18.6358 14.9737 17.8279 15.2886 17.0734 15.7078C16.8195 15.8452 16.5775 16.0036 16.35 16.1813L16.3 16.2203C16.3172 16.5313 16.3734 17.2625 16.3984 18.3531C16.4234 19.5406 16.3984 21.0531 16.1719 22.6906C15.6672 26.2547 18.2547 29.2016 21.2906 29.2094C21.4703 28.4766 21.7609 27.7344 22.0547 26.9547C22.9 24.675 24.5609 23.0156 23.1609 16.5219C22.9344 15.4641 22.4781 15.0328 21.85 14.7891C21.5005 14.666 21.1313 14.6083 20.7609 14.6188V14.6172ZM37.2562 15.0391H37.3625C37.4922 15.0469 37.6234 15.0563 37.7359 15.0875C37.8375 15.1074 37.9345 15.1461 38.0219 15.2016C38.0625 15.2259 38.0973 15.2588 38.124 15.2979C38.1507 15.337 38.1687 15.3814 38.1766 15.4281V15.4453C38.1761 15.5452 38.1509 15.6435 38.1031 15.7313C38.0416 15.8435 37.9654 15.947 37.8766 16.0391C37.6665 16.274 37.3816 16.4291 37.0703 16.4781C36.7691 16.5168 36.4643 16.4415 36.2156 16.2672C36.1171 16.1957 36.027 16.1135 35.9469 16.0219C35.8766 15.9479 35.8307 15.8541 35.8156 15.7531C35.8065 15.6568 35.8357 15.5608 35.8969 15.4859C35.9692 15.412 36.0518 15.3488 36.1422 15.2984C36.3438 15.1844 36.6125 15.1031 36.9234 15.0609C37.0359 15.0469 37.15 15.0375 37.2562 15.0297V15.0391ZM20.9625 15.3891C21.0688 15.3891 21.1922 15.3969 21.3062 15.4125C21.6312 15.4625 21.9078 15.5438 22.1266 15.6734C22.2338 15.7257 22.3282 15.8009 22.4031 15.8938C22.4843 15.9917 22.5251 16.1168 22.5172 16.2438C22.495 16.3641 22.441 16.4763 22.3609 16.5688C22.2752 16.6731 22.1741 16.7637 22.0609 16.8375C21.7902 17.032 21.4556 17.1164 21.125 17.0734C20.7901 17.0196 20.4833 16.8538 20.2547 16.6031C20.1587 16.5 20.0763 16.385 20.0094 16.2609C19.9365 16.1503 19.9049 16.0175 19.9203 15.8859C19.9531 15.6672 20.1406 15.5438 20.3203 15.4797C20.525 15.4125 20.7438 15.3906 20.9625 15.3984V15.3891ZM39.8359 30.6875H39.8281C39.5281 30.8016 39.2766 30.8438 39.0641 30.9422C38.849 31.0233 38.6722 31.1822 38.5688 31.3875C38.4297 31.625 38.325 32.0484 38.3563 32.7703C38.4502 32.8379 38.5555 32.8882 38.6672 32.9188C39.0172 33.025 39.6188 33.0984 40.2859 33.0891C41.6125 33.0719 43.2484 32.7641 44.1188 32.3563C44.83 32.0266 45.4904 31.5967 46.0797 31.0797C43.175 31.6734 41.5406 31.5188 40.5297 31.1047C40.2813 30.9972 40.0485 30.8569 39.8375 30.6875H39.8359ZM23.1047 30.8828H23.0625C22.95 30.8906 22.7938 30.9328 22.4766 31.275C21.7516 32.0875 21.5 32.6 20.9063 33.0734C20.3047 33.5531 19.5313 33.8063 17.9766 34.1234C17.6449 34.1828 17.3221 34.2836 17.0156 34.4234C17.0719 34.4734 17.0719 34.4906 17.1609 34.5297C17.3906 34.6609 17.6813 34.7672 17.9188 34.8313C18.5859 34.9938 19.675 35.1891 20.8234 34.9938C21.9625 34.7984 23.15 34.2516 24.1688 32.8297C24.3484 32.5859 24.3625 32.2188 24.2172 31.8281C24.0719 31.4469 23.7531 31.1047 23.5344 31.0156C23.3975 30.9519 23.2523 30.9077 23.1031 30.8844L23.1047 30.8828Z" fill="white"/>
</g>
<defs>
<clipPath id="clip0_511_9">
<rect width="50" height="50" fill="white"/>
</clipPath>
</defs>
</svg>
