<svg width="50" height="50" viewBox="0 0 50 50" fill="none" xmlns="http://www.w3.org/2000/svg">
<g clip-path="url(#clip0_511_22)">
<path d="M25 0.78125C11.1895 0.78125 0 11.6211 0 25C0 38.3789 11.1895 49.2188 25 49.2188C38.8105 49.2188 50 38.3789 50 25C50 11.6211 38.8105 0.78125 25 0.78125ZM30.3125 9.86328C31.1996 8.37891 33.1653 7.86133 34.6976 8.7207C36.2399 9.58008 36.7641 11.4844 35.877 12.9785C34.9899 14.4629 33.0242 14.9805 31.4919 14.1211C29.9496 13.252 29.4254 11.3477 30.3125 9.86328ZM8.81048 28.1152C7.03629 28.1152 5.59476 26.7188 5.59476 25C5.59476 23.2812 7.03629 21.8848 8.81048 21.8848C10.5847 21.8848 12.0262 23.2812 12.0262 25C12.0262 26.7188 10.5847 28.1152 8.81048 28.1152ZM11.6431 28.418C13.8911 26.6699 13.9012 23.3496 11.6431 21.5918C12.5101 18.3887 14.5766 15.6641 17.3387 13.8672L19.7278 17.7344C14.5363 21.2793 14.5363 28.7207 19.7278 32.2656L17.3387 36.1328C14.5766 34.3457 12.5202 31.6113 11.6431 28.418ZM34.6976 41.2793C33.1552 42.1387 31.1996 41.6309 30.3125 40.1367C29.4254 38.6426 29.9496 36.7383 31.4919 35.8789C33.0242 35.0195 34.9899 35.5273 35.877 37.0215C36.7641 38.5156 36.2399 40.4199 34.6976 41.2793ZM34.7278 34.4922C32.0363 33.4863 29.0726 35.1367 28.629 37.9102C28.1048 38.0469 23.6996 39.3066 18.881 36.9922L21.1492 33.0566C26.8952 35.6445 33.5887 31.9141 34.1431 25.791L38.7903 25.8594C38.5585 29.2285 37.0464 32.2559 34.7278 34.4922V34.4922ZM34.1331 24.209C33.5887 18.1543 26.9456 14.3262 21.1391 16.9434L18.871 13.0078C23.6996 10.6934 28.0948 11.9531 28.619 12.0898C29.0625 14.8535 32.0262 16.5137 34.7177 15.5078C37.0464 17.7441 38.5484 20.7715 38.7702 24.1504L34.1331 24.209Z" fill="white"/>
</g>
<defs>
<clipPath id="clip0_511_22">
<rect width="50" height="50" fill="white"/>
</clipPath>
</defs>
</svg>
