<svg width="35" height="35" viewBox="0 0 35 35" fill="none" xmlns="http://www.w3.org/2000/svg">
<path d="M25.8077 16.1293H25.8084C26.9914 15.4454 29.3728 14.0706 30.5558 13.3874V7.905C29.3728 7.2218 26.9914 5.847 25.8084 5.1645V5.1638C25.807 5.1652 23.4361 3.7932 23.4347 3.7946V3.7939C22.0396 2.9882 18.8994 1.1759 17.4791 0.356201C17.4266 0.367401 16.3605 1.0023 16.3136 1.0226V33.9765L17.3832 34.5932C17.4161 34.6058 17.449 34.6212 17.4763 34.645L18.688 33.9457V20.2404L21.0617 18.8698L23.4347 20.2404H23.4354L25.8084 21.611H25.8091L28.1821 22.9816H28.1828V28.464L30.5565 27.0934V21.611C29.3728 20.9278 26.9914 19.553 25.8091 18.8691C25.8084 18.8705 23.4354 17.4992 23.4354 17.4999V17.4992L25.8077 16.1293ZM23.434 14.758C22.251 15.4412 19.8703 16.816 18.6873 17.4985V3.7946C19.871 4.4778 22.2517 5.8512 23.4347 6.5344V6.5351L28.1821 9.2756V12.0175H28.1814L25.8084 13.3881H25.8077L23.4347 14.7587V14.7594L23.434 14.758Z" fill="white"/>
<path d="M18.6871 33.9452V1.05291L17.4789 0.355713C13.2131 2.80081 8.70648 5.42021 4.44348 7.87581V27.123L6.76468 28.4635L6.81718 28.4327V14.789C9.85588 16.5425 13.2747 18.5172 16.3127 20.2714V33.9767L18.6871 33.9452ZM16.3127 17.5295C13.2628 15.769 9.86358 13.8055 6.81718 12.0471V9.24571C9.84398 7.49781 13.2866 5.50981 16.3127 3.76331V17.5295Z" fill="white"/>
</svg>
