<svg width="75" height="50" viewBox="0 0 75 50" fill="none" xmlns="http://www.w3.org/2000/svg">
<g clip-path="url(#clip0_105_7632)">
<path d="M73.5 24.9259C73.5 31.1494 69.7048 36.9692 63.1862 41.302C56.6785 45.6276 47.6014 48.3519 37.5 48.3519C27.3986 48.3519 18.3215 45.6276 11.8138 41.302C5.29524 36.9692 1.5 31.1494 1.5 24.9259C1.5 18.7025 5.29524 12.8827 11.8138 8.54985C18.3215 4.22424 27.3986 1.5 37.5 1.5C47.6014 1.5 56.6785 4.22424 63.1862 8.54985C69.7048 12.8827 73.5 18.7025 73.5 24.9259Z" stroke="white" stroke-width="3"/>
<path d="M21.9141 17.8519C23.5547 17.8519 24.6387 18.2222 25.1953 19C25.752 19.7778 25.8691 21.0741 25.5762 22.926C25.2832 24.8519 24.6973 26.2593 23.8477 27.0741C22.998 27.8889 21.709 28.2963 19.9805 28.2963H17.373L18.9844 17.8519H21.9141ZM11.4258 38.8889H15.7324L16.7578 32.2593H20.4492C22.0898 32.2593 23.4082 32.0371 24.4629 31.5926C25.5176 31.1482 26.4551 30.4445 27.334 29.4074C28.0664 28.5556 28.6523 27.6297 29.0918 26.6297C29.5312 25.6297 29.8535 24.5185 30.0293 23.2963C30.498 20.3334 30.1465 18.0371 29.0039 16.3704C27.8613 14.7037 26.0449 13.8889 23.5547 13.8889H15.2637L11.4258 38.8889Z" fill="white"/>
<path d="M33.1934 7.25928H37.4707L36.4453 13.8889H40.2539C42.6562 13.8889 44.2969 14.4074 45.2051 15.4815C46.1133 16.5556 46.377 18.2593 46.0254 20.6296L44.2383 32.2593H39.9023L41.6016 21.1852C41.8066 19.9259 41.7188 19.0741 41.3965 18.6296C41.0742 18.1852 40.3418 17.9259 39.2578 17.9259H35.8301L33.6328 32.2593H29.3555L33.1934 7.25928Z" fill="white"/>
<path d="M55.5176 17.8519C57.1582 17.8519 58.2422 18.2222 58.7988 19C59.3555 19.7778 59.4727 21.0741 59.1797 22.926C58.8867 24.8519 58.3008 26.2593 57.4512 27.0741C56.6016 27.8889 55.3125 28.2963 53.584 28.2963H50.9766L52.5879 17.8519H55.5176ZM45.0293 38.8889H49.3359L50.3613 32.2593H54.0527C55.6934 32.2593 57.0117 32.0371 58.0664 31.5926C59.1211 31.1482 60.0586 30.4445 60.9375 29.4074C61.6699 28.5556 62.2559 27.6297 62.6953 26.6297C63.1348 25.6297 63.457 24.5185 63.6328 23.2963C64.1016 20.3334 63.75 18.0371 62.6074 16.3704C61.4648 14.7037 59.6484 13.8889 57.1582 13.8889H48.8672L45.0293 38.8889Z" fill="white"/>
</g>
<defs>
<clipPath id="clip0_105_7632">
<rect width="75" height="50" fill="white"/>
</clipPath>
</defs>
</svg>
