<svg width="50" height="50" viewBox="0 0 50 50" fill="none" xmlns="http://www.w3.org/2000/svg">
<path d="M32.514 37.3047C32.8868 38.0619 33.4659 38.6984 34.1847 39.1407C34.9034 39.583 35.7326 39.8132 36.5765 39.8047C38.2796 39.8047 39.3687 38.9532 39.3687 37.7735C39.3687 36.3672 38.2499 35.8641 36.3749 35.0438L35.3468 34.6032C32.378 33.3391 30.4093 31.7563 30.4093 28.4094C30.4093 25.3266 32.7531 22.9782 36.4296 22.9782C37.6198 22.8922 38.8089 23.1586 39.8487 23.7441C40.8884 24.3295 41.7328 25.2082 42.2765 26.2704L39.0624 28.3251C38.8531 27.7984 38.4886 27.3478 38.0173 27.033C37.5459 26.7182 36.9901 26.5542 36.4234 26.5626C36.1761 26.5378 35.9264 26.5648 35.6902 26.6419C35.454 26.719 35.2364 26.8444 35.0513 27.0102C34.8662 27.1761 34.7177 27.3786 34.6153 27.605C34.5128 27.8314 34.4586 28.0766 34.4562 28.3251C34.4562 29.5579 35.2202 30.0579 36.9843 30.8251L38.0124 31.2657C41.5062 32.7641 43.4812 34.2907 43.4812 37.7235C43.4812 41.4251 40.5734 43.4532 36.6687 43.4532C35.1473 43.5501 33.6303 43.2047 32.3009 42.4586C30.9715 41.7125 29.8863 40.5976 29.1765 39.2485L32.514 37.3047ZM17.9906 37.661C18.6359 38.8063 19.2234 39.7751 20.6359 39.7751C21.9859 39.7751 22.839 39.2469 22.839 37.1922V23.2126H26.9499V37.2469C26.9499 41.5032 24.4499 43.4407 20.8109 43.4407C19.5245 43.511 18.247 43.1904 17.1463 42.5211C16.0456 41.8518 15.1731 40.8651 14.6437 39.6907L17.9906 37.661Z" fill="white"/>
<rect x="1.5" y="1.5" width="47" height="47" stroke="white" stroke-width="3"/>
</svg>
