<svg width="50" height="50" viewBox="0 0 50 50" fill="none" xmlns="http://www.w3.org/2000/svg">
<g clip-path="url(#clip0_105_7627)">
<path d="M49.057 22.7844L27.2266 0.955127C25.9701 -0.3021 23.9311 -0.3021 22.673 0.955127L18.1398 5.48833L23.8904 11.2389C25.2268 10.7874 26.7592 11.0903 27.8244 12.1555C28.8947 13.2276 29.1955 14.7731 28.733 16.1137L34.275 21.6559C35.6158 21.194 37.1629 21.4928 38.2338 22.5655C39.7305 24.0616 39.7305 26.4864 38.2338 27.9834C36.7367 29.4807 34.3119 29.4807 32.8141 27.9834C31.6883 26.8565 31.4102 25.2032 31.9801 23.8163L26.8117 18.6479L26.8111 32.2489C27.1858 32.4341 27.528 32.6788 27.8244 32.9735C29.3211 34.4696 29.3211 36.8946 27.8244 38.3928C26.3273 39.8893 23.9014 39.8893 22.4064 38.3928C20.9098 36.8946 20.9098 34.4698 22.4064 32.9737C22.7651 32.6148 23.1914 32.3306 23.6605 32.1376V18.4098C23.1907 18.218 22.7642 17.9337 22.4064 17.5737C21.2725 16.4413 20.9998 14.7774 21.5809 13.385L15.9121 7.71567L0.943359 22.6834C-0.314453 23.9418 -0.314453 25.9811 0.943359 27.2385L22.7742 49.0682C24.031 50.3256 26.0697 50.3256 27.3281 49.0682L49.0568 27.3399C50.3143 26.0821 50.3143 24.0417 49.0568 22.7844" fill="white"/>
</g>
<defs>
<clipPath id="clip0_105_7627">
<rect width="50" height="50" fill="white"/>
</clipPath>
</defs>
</svg>
